{
    "asset": {
        "copyright": "(C)2017",
        "generator": "Nextspace importers exporters for GL runtime environments",
        "version": "2.0"
    },
    "scene": 0,
    "scenes": [
        {
            "nodes": [
                0
            ]
        }
    ],
    "nodes": [
        {
            "children": [
                1
            ],
            "matrix": [
                1.0,
                0.0,
                0.0,
                0.0,
                0.0,
                0.0,
                -1.0,
                0.0,
                0.0,
                1.0,
                0.0,
                0.0,
                0.0,
                0.0,
                0.0,
                1.0
            ]
        },
        {
            "mesh": 0
        }
    ],
    "meshes": [
        {
            "primitives": [
                {
                    "attributes": {
                        "NORMAL": 1,
                        "POSITION": 2,
                        "TEXCOORD_0": 3
                    },
                    "indices": 0,
                    "mode": 4,
                    "material": 0
                }
            ]
        }
    ],
    "accessors": [
        {
            "bufferView": 0,
            "byteOffset": 0,
            "componentType": 5125,
            "count": 51978,
            "max": [
                12188
            ],
            "min": [
                0
            ],
            "type": "SCALAR"
        },
        {
            "bufferView": 1,
            "byteOffset": 0,
            "componentType": 5126,
            "count": 12189,
            "max": [
                1.0,
                0.999963402748108,
                0.9999982714653016
            ],
            "min": [
                -1.0,
                -0.9999996423721314,
                -0.9999852180480956
            ],
            "type": "VEC3"
        },
        {
            "bufferView": 1,
            "byteOffset": 146268,
            "componentType": 5126,
            "count": 12189,
            "max": [
                0.058715999126434329,
                0.007728999946266413,
                0.1735139936208725
            ],
            "min": [
                -0.058715999126434329,
                -0.07588200271129608,
                -0.04591299965977669
            ],
            "type": "VEC3"
        },
        {
            "bufferView": 2,
            "byteOffset": 0,
            "componentType": 5126,
            "count": 12189,
            "max": [
                0.9837830066680908,
                0.991886019706726
            ],
            "min": [
                0.00494999997317791,
                0.011954009532928469
            ],
            "type": "VEC2"
        }
    ],
    "materials": [
        {
            "pbrMetallicRoughness": {
                "baseColorFactor": [
                    0.7529412508010864,
                    0.7529412508010864,
                    0.7529412508010864,
                    0.0
                ],
                "metallicFactor": 0.0
            },
            "emissiveFactor": [
                0.0,
                0.0,
                0.0
            ],
            "name": "Explorer Default"
        }
    ],
    "bufferViews": [
        {
            "buffer": 0,
            "byteOffset": 390048,
            "byteLength": 207912,
            "target": 34963
        },
        {
            "buffer": 0,
            "byteOffset": 0,
            "byteLength": 292536,
            "byteStride": 12,
            "target": 34962
        },
        {
            "buffer": 0,
            "byteOffset": 292536,
            "byteLength": 97512,
            "byteStride": 8,
            "target": 34962
        }
    ],
    "buffers": [
        {
            "byteLength": 597960,
            "uri": "data:application/octet-stream;base64,"
        }
    ]
}